<svg xmlns="http://www.w3.org/2000/svg" viewBox="0 0 1817.43 357.63"><defs><style>.cls-1{fill:none;stroke:#00a651;stroke-miterlimit:10;stroke-width:10px;opacity:0.11;}.cls-2{fill:#125b38;}</style></defs><g id="Layer_2" data-name="Layer 2"><g id="Layer_1-2" data-name="Layer 1"><path class="cls-1" d="M938,174.37c.39,1,.53,2.18,1.78,2.58-.3,1-1.18,2.47-1.9,1.87C936.54,177.64,937,175.84,938,174.37Z"/><path class="cls-2" d="M398.08,337.68c0,6.84-.92,9.78-8.92,9.65-30.67-.53-61.35-.42-92-.07-6.63.08-8.18-1.95-8.15-8.31.26-48.3.14-96.6.15-144.91,0-7.57-.13-15.1-1.95-22.52-1.77-7.22-6-11.46-13.68-12-7.32-.5-12.82,2.27-16.06,9-3.52,7.32-4,15.14-4,23.08,0,48.62-.17,97.25.18,145.88.06,7.69-1.86,9.93-9.74,9.81q-45-.71-90,0c-7.23.09-9.46-1.5-9.4-9.11.39-48.3.18-96.6.22-144.91,0-7.58-.17-15.13-2.28-22.46-1.9-6.61-6.12-10.7-13.35-11.25s-12.86,2.16-16.07,8.9c-3.5,7.3-4,15.12-4,23.06,0,48.63-.15,97.26.17,145.89,0,7.51-1.58,10.05-9.62,9.91q-45-.76-90,0c-8.32.14-9.53-2.83-9.45-10,.37-29.24.16-58.49.16-87.73H.32c0-28.92-.6-57.84.12-86.74C1.75,111.3,38.73,66,88.7,55.08c39-8.54,73.08,2.64,101.76,29.69,6.62,6.26,10,7.65,17.61.8C237,59.75,270.2,46.43,309.77,54.71c48.54,10.12,81.24,47.58,86.38,98.72A367.24,367.24,0,0,1,398,190.8C397.88,239.76,397.81,288.72,398.08,337.68Z"/><path class="cls-2" d="M729.61,196.76c1,47.68.46,95.4.85,143.09,0,6-2.2,7.2-7.65,7.15-29.1-.22-58.22-.29-87.32.05-6.57.07-8.48-1.82-8.43-8.39.3-38,.18-76.07.11-114.11,0-7.46,0-14.92-2.1-22.25-6.58-23.22-25.73-34.73-48-28.61-21.38,5.9-33.79,29.27-27.24,51.29,6,20.3,27.93,30.84,50,24,3.53-1.1,6.93-2.6,11.52-4.35,0,34-.1,67.06.12,100.09,0,5.14-2.21,6-6.61,6.61-90.25,11.82-166-57.71-161.31-148.17,4.36-83.61,74.78-143.32,158.56-135.43,41.25,3.88,76.23,18.48,101.48,52.36C720.54,142.81,729,168.87,729.61,196.76Z"/><path class="cls-2" d="M901.05,58.94q-.27,140.63,0,281.23c0,5.22-1.09,7.24-8.23,7.14q-41.45-.54-82.91,0c-7.17.1-8.24-1.89-8.2-7.09.23-47,.13-94,.13-141,0-46.26.13-92.53-.16-138.78,0-6,1-8.37,9.52-8.2,27.32.54,54.68.38,82,.07C899.71,52.27,901.06,53.93,901.05,58.94Z"/><path class="cls-2" d="M1071.39,342.7c0,4-2.4,4.59-7.88,4.56-27.63-.13-55.26-.21-82.89.05-6.89.06-8.51-1.24-8.47-5.37.3-25.63.16-51.26.16-76.9,0-25.81.11-51.63-.13-77.45,0-3.79,1.33-5.14,7.87-5.09q41.9.34,83.79,0c6,0,7.54,1,7.53,4.72Q1071.09,265,1071.39,342.7Z"/><path class="cls-2" d="M1071.65,92.36c.25,27-20.47,46.76-49.23,46.9-29.3.15-49.45-18.61-49.62-46.19-.16-26.38,21.7-47.81,48.91-47.92C1048.77,45,1071.4,66.43,1071.65,92.36Z"/><path class="cls-2" d="M1390.62,133c1,64.38-43.3,117.6-106.67,128-12.31,2-24.73,1.31-37.11,0-3-.33-5-1-5-4.86.13-31.22.08-62.43.08-94.71,21.73,12.29,37.68,10.23,49.57-5.75,8.68-11.68,9.67-24.36,2.93-37.15s-21.32-19.88-36.2-18c-14.56,1.81-23,10.46-27,24.19-2.47,8.55-3,17.25-3,26.06,0,62.35-.08,124.71.18,187.06,0,6.65-1.28,8.83-8.41,8.68-25.08-.48-50.17-.32-75.26-.07-5.33.05-7.61-.67-7.59-6.9.3-67.29-.14-134.6.48-201.88.28-30.63,8.9-58.95,29-83,32.46-38.84,90.7-53.93,140.81-36.36C1356.44,35.46,1389.86,81.59,1390.62,133Z"/><path class="cls-2" d="M1786.49,236.36c-16.37,55.05-73.91,116.31-158.79,121A178.43,178.43,0,0,1,1442,210.14c-15.63-88.94,37-175.28,122.79-201.82,42.45-13.11,84.25-10.67,125,6.92a170.31,170.31,0,0,1,63.53,47.4c-32.91-23.58-69.22-32.4-108.84-23.88s-69.49,31.17-88.89,66.72c-33.51,61.38-13.27,139.38,48,176.63C1665.9,319.94,1748.3,300.42,1786.49,236.36Z"/><path class="cls-2" d="M1817.26,155c-1.7,29.76-13.29,55.13-35,75.57-43.68,41.13-114.26,40.09-157.26-6.84,5.35,1.1,10.13,2.33,15,3,54.09,7.94,101.67-5.22,140.69-44.53,16.64-16.76,27.13-37.18,32.45-60.36A85.8,85.8,0,0,1,1817.26,155Z"/><path class="cls-2" d="M1741.17,200.25A94.79,94.79,0,0,1,1622,182.41c4.46.9,8.54,2,12.68,2.54,49.4,7,92.11-5.68,125.83-43.64,11.54-13,18.88-28.39,22.61-45.43a19.08,19.08,0,0,1,.63-1.95C1794.41,129.16,1781.58,176,1741.17,200.25Z"/><path class="cls-2" d="M1746.8,105.86c-.48,17.47-6.83,32.53-19.5,44.63a62.63,62.63,0,0,1-88.92-2.31c-.06-1,.54-.79,1.12-.59,18.35,4.33,36.47,3.51,54.11-3.12,23.54-8.87,40.56-24.46,48.8-48.74.36-1.08.52-2.25,1-3.29s.1-2.31,1.19-3.31A49.57,49.57,0,0,1,1746.8,105.86Z"/><path class="cls-2" d="M1639.5,147.59c-.42.11-.9.11-1.12.59-.4-.17-.94-.6-.66-.86C1638.27,146.83,1639,147.1,1639.5,147.59Z"/></g></g></svg>